<svg xmlns="http://www.w3.org/2000/svg" xmlns:xlink="http://www.w3.org/1999/xlink" width="500" zoomAndPan="magnify" viewBox="0 0 375 374.999991" height="500" preserveAspectRatio="xMidYMid meet" version="1.2"><defs><clipPath id="803bcb61dc"><path d="M 96.449219 69.578125 L 278.699219 69.578125 L 278.699219 257.828125 L 96.449219 257.828125 Z M 96.449219 69.578125 "/></clipPath><clipPath id="c25c4edf84"><path d="M 158.585938 91.738281 L 196.773438 91.738281 L 196.773438 268.511719 L 158.585938 268.511719 Z M 158.585938 91.738281 "/></clipPath><clipPath id="9e802725fe"><path d="M 196.773438 129.960938 L 196.773438 268.394531 L 158.585938 230.167969 L 158.585938 91.738281 Z M 196.773438 129.960938 "/></clipPath><clipPath id="2ea4269e80"><path d="M 216.175781 158.421875 L 254.363281 158.421875 L 254.363281 276.867188 L 216.175781 276.867188 Z M 216.175781 158.421875 "/></clipPath><clipPath id="0ae1bcc2b1"><path d="M 254.363281 196.648438 L 254.363281 276.742188 L 216.175781 238.519531 L 216.175781 158.421875 Z M 254.363281 196.648438 "/></clipPath><clipPath id="b6b60e2abd"><path d="M 60.101562 236.320312 L 314.902344 236.320312 L 314.902344 285.09375 L 60.101562 285.09375 Z M 60.101562 236.320312 "/></clipPath></defs><g id="4ff1cdd000"><g clip-rule="nonzero" clip-path="url(#803bcb61dc)"><path style=" stroke:none;fill-rule:evenodd;fill:#66b0df;fill-opacity:1;" d="M 123.667969 176.023438 L 158.632812 141.332031 L 158.632812 92.617188 L 175.894531 109.742188 L 216.359375 69.59375 L 216.359375 162.519531 L 251.328125 197.210938 L 251.328125 249.839844 L 278.546875 249.839844 L 278.546875 257.589844 C 266.890625 257.589844 255.234375 257.589844 243.578125 257.589844 L 243.578125 200.441406 L 216.359375 173.433594 L 216.359375 257.589844 L 208.613281 257.589844 L 208.613281 88.195312 L 181.394531 115.199219 L 196.410156 130.097656 L 196.410156 257.589844 L 188.664062 257.589844 L 188.664062 133.324219 L 166.382812 111.214844 L 166.382812 257.589844 L 158.632812 257.589844 L 158.632812 152.246094 L 131.414062 179.25 L 131.414062 257.585938 C 119.757812 257.585938 108.101562 257.585938 96.449219 257.585938 L 96.449219 249.839844 L 123.667969 249.839844 Z M 123.667969 176.023438 "/></g><g clip-rule="nonzero" clip-path="url(#c25c4edf84)"><g clip-rule="nonzero" clip-path="url(#9e802725fe)"><path style=" stroke:none;fill-rule:nonzero;fill:#166394;fill-opacity:1;" d="M 196.773438 91.738281 L 196.773438 268.359375 L 158.585938 268.359375 L 158.585938 91.738281 Z M 196.773438 91.738281 "/></g></g><g clip-rule="nonzero" clip-path="url(#2ea4269e80)"><g clip-rule="nonzero" clip-path="url(#0ae1bcc2b1)"><path style=" stroke:none;fill-rule:nonzero;fill:#166394;fill-opacity:1;" d="M 254.363281 158.421875 L 254.363281 276.71875 L 216.175781 276.71875 L 216.175781 158.421875 Z M 254.363281 158.421875 "/></g></g><g clip-rule="nonzero" clip-path="url(#b6b60e2abd)"><path style=" stroke:none;fill-rule:nonzero;fill:#ffffff;fill-opacity:1;" d="M 60.101562 236.320312 L 314.835938 236.320312 L 314.835938 285.09375 L 60.101562 285.09375 Z M 60.101562 236.320312 "/></g><g style="fill:#66b0df;fill-opacity:1;"><g transform="translate(74.968754, 287.584112)"><path style="stroke:none" d="M 4.296875 -5.109375 L 7.953125 -5.109375 L 7.953125 -0.734375 C 7.554688 -0.410156 7.082031 -0.171875 6.53125 -0.015625 C 5.988281 0.128906 5.453125 0.203125 4.921875 0.203125 C 4.296875 0.203125 3.710938 0.101562 3.171875 -0.09375 C 2.640625 -0.289062 2.175781 -0.597656 1.78125 -1.015625 C 1.394531 -1.429688 1.085938 -1.957031 0.859375 -2.59375 C 0.640625 -3.238281 0.53125 -4.007812 0.53125 -4.90625 C 0.53125 -5.820312 0.660156 -6.601562 0.921875 -7.25 C 1.191406 -7.90625 1.539062 -8.4375 1.96875 -8.84375 C 2.40625 -9.25 2.894531 -9.539062 3.4375 -9.71875 C 3.976562 -9.90625 4.53125 -10 5.09375 -10 C 5.65625 -10 6.144531 -9.957031 6.5625 -9.875 C 6.988281 -9.789062 7.332031 -9.703125 7.59375 -9.609375 L 7.203125 -8 C 6.960938 -8.09375 6.695312 -8.160156 6.40625 -8.203125 C 6.125 -8.253906 5.757812 -8.28125 5.3125 -8.28125 C 4.90625 -8.28125 4.535156 -8.21875 4.203125 -8.09375 C 3.867188 -7.976562 3.578125 -7.78125 3.328125 -7.5 C 3.078125 -7.226562 2.882812 -6.878906 2.75 -6.453125 C 2.613281 -6.023438 2.546875 -5.503906 2.546875 -4.890625 C 2.546875 -4.296875 2.609375 -3.785156 2.734375 -3.359375 C 2.867188 -2.941406 3.050781 -2.59375 3.28125 -2.3125 C 3.519531 -2.039062 3.796875 -1.835938 4.109375 -1.703125 C 4.421875 -1.578125 4.753906 -1.515625 5.109375 -1.515625 C 5.347656 -1.515625 5.582031 -1.539062 5.8125 -1.59375 C 6.050781 -1.65625 6.25 -1.75 6.40625 -1.875 L 6.40625 -3.71875 L 4.296875 -3.953125 Z M 4.296875 -5.109375 "/></g></g><g style="fill:#66b0df;fill-opacity:1;"><g transform="translate(86.990004, 287.584112)"><path style="stroke:none" d="M 0.84375 -9.703125 C 1.050781 -9.742188 1.28125 -9.78125 1.53125 -9.8125 C 1.78125 -9.84375 2.023438 -9.863281 2.265625 -9.875 C 2.515625 -9.894531 2.753906 -9.910156 2.984375 -9.921875 C 3.222656 -9.929688 3.441406 -9.9375 3.640625 -9.9375 C 4.097656 -9.9375 4.546875 -9.894531 4.984375 -9.8125 C 5.429688 -9.726562 5.828125 -9.582031 6.171875 -9.375 C 6.523438 -9.175781 6.804688 -8.894531 7.015625 -8.53125 C 7.234375 -8.175781 7.34375 -7.726562 7.34375 -7.1875 C 7.34375 -6.382812 7.15625 -5.726562 6.78125 -5.21875 C 6.40625 -4.71875 5.90625 -4.367188 5.28125 -4.171875 L 5.96875 -3.734375 L 8.203125 0 L 5.984375 0 L 3.765625 -3.84375 L 2.765625 -4.015625 L 2.765625 0 L 0.84375 0 Z M 3.78125 -8.234375 C 3.582031 -8.234375 3.382812 -8.226562 3.1875 -8.21875 C 3 -8.207031 2.859375 -8.1875 2.765625 -8.15625 L 2.765625 -5.3125 L 3.5625 -5.3125 C 4.101562 -5.3125 4.53125 -5.429688 4.84375 -5.671875 C 5.15625 -5.921875 5.3125 -6.328125 5.3125 -6.890625 C 5.3125 -7.304688 5.179688 -7.632812 4.921875 -7.875 C 4.660156 -8.113281 4.28125 -8.234375 3.78125 -8.234375 Z M 3.78125 -8.234375 "/></g></g><g style="fill:#66b0df;fill-opacity:1;"><g transform="translate(98.913305, 287.584112)"><path style="stroke:none" d="M 0.84375 -9.796875 L 6.65625 -9.796875 L 6.65625 -8.09375 L 2.765625 -8.09375 L 2.765625 -5.8125 L 6.296875 -5.8125 L 6.296875 -4.109375 L 2.765625 -4.109375 L 2.765625 -1.703125 L 6.71875 -1.703125 L 6.71875 0 L 0.84375 0 Z M 0.84375 -9.796875 "/></g></g><g style="fill:#66b0df;fill-opacity:1;"><g transform="translate(109.717237, 287.584112)"><path style="stroke:none" d="M 5.671875 -2.171875 L 2.65625 -2.171875 L 1.921875 0 L 0 0 L 3.53125 -9.875 L 4.9375 -9.875 L 8.46875 0 L 6.453125 0 Z M 3.15625 -3.703125 L 5.25 -3.703125 L 4.515625 -5.890625 L 4.234375 -7.4375 L 4.15625 -7.4375 L 3.859375 -5.875 Z M 3.15625 -3.703125 "/></g></g><g style="fill:#66b0df;fill-opacity:1;"><g transform="translate(121.682515, 287.584112)"><path style="stroke:none" d="M 7.796875 -8.09375 L 4.9375 -8.09375 L 4.9375 0 L 3.03125 0 L 3.03125 -8.09375 L 0.15625 -8.09375 L 0.15625 -9.796875 L 7.796875 -9.796875 Z M 7.796875 -8.09375 "/></g></g><g style="fill:#66b0df;fill-opacity:1;"><g transform="translate(133.130085, 287.584112)"><path style="stroke:none" d=""/></g></g><g style="fill:#66b0df;fill-opacity:1;"><g transform="translate(140.170112, 287.584112)"><path style="stroke:none" d="M 0.84375 -9.796875 L 6.65625 -9.796875 L 6.65625 -8.09375 L 2.765625 -8.09375 L 2.765625 -5.671875 L 6.34375 -5.671875 L 6.34375 -3.96875 L 2.765625 -3.96875 L 2.765625 0 L 0.84375 0 Z M 0.84375 -9.796875 "/></g></g><g style="fill:#66b0df;fill-opacity:1;"><g transform="translate(150.778143, 287.584112)"><path style="stroke:none" d="M 6.15625 -9.796875 L 7.984375 -9.796875 L 7.984375 -3.46875 C 7.984375 -2.832031 7.894531 -2.285156 7.71875 -1.828125 C 7.550781 -1.367188 7.316406 -0.988281 7.015625 -0.6875 C 6.722656 -0.394531 6.363281 -0.175781 5.9375 -0.03125 C 5.507812 0.101562 5.035156 0.171875 4.515625 0.171875 C 2.035156 0.171875 0.796875 -0.960938 0.796875 -3.234375 L 0.796875 -9.796875 L 2.71875 -9.796875 L 2.71875 -3.609375 C 2.71875 -3.222656 2.75 -2.894531 2.8125 -2.625 C 2.882812 -2.363281 2.992188 -2.148438 3.140625 -1.984375 C 3.296875 -1.828125 3.484375 -1.710938 3.703125 -1.640625 C 3.929688 -1.578125 4.195312 -1.546875 4.5 -1.546875 C 5.082031 -1.546875 5.503906 -1.707031 5.765625 -2.03125 C 6.023438 -2.351562 6.15625 -2.878906 6.15625 -3.609375 Z M 6.15625 -9.796875 "/></g></g><g style="fill:#66b0df;fill-opacity:1;"><g transform="translate(163.051244, 287.584112)"><path style="stroke:none" d="M 7.796875 -8.09375 L 4.9375 -8.09375 L 4.9375 0 L 3.03125 0 L 3.03125 -8.09375 L 0.15625 -8.09375 L 0.15625 -9.796875 L 7.796875 -9.796875 Z M 7.796875 -8.09375 "/></g></g><g style="fill:#66b0df;fill-opacity:1;"><g transform="translate(174.498814, 287.584112)"><path style="stroke:none" d="M 6.15625 -9.796875 L 7.984375 -9.796875 L 7.984375 -3.46875 C 7.984375 -2.832031 7.894531 -2.285156 7.71875 -1.828125 C 7.550781 -1.367188 7.316406 -0.988281 7.015625 -0.6875 C 6.722656 -0.394531 6.363281 -0.175781 5.9375 -0.03125 C 5.507812 0.101562 5.035156 0.171875 4.515625 0.171875 C 2.035156 0.171875 0.796875 -0.960938 0.796875 -3.234375 L 0.796875 -9.796875 L 2.71875 -9.796875 L 2.71875 -3.609375 C 2.71875 -3.222656 2.75 -2.894531 2.8125 -2.625 C 2.882812 -2.363281 2.992188 -2.148438 3.140625 -1.984375 C 3.296875 -1.828125 3.484375 -1.710938 3.703125 -1.640625 C 3.929688 -1.578125 4.195312 -1.546875 4.5 -1.546875 C 5.082031 -1.546875 5.503906 -1.707031 5.765625 -2.03125 C 6.023438 -2.351562 6.15625 -2.878906 6.15625 -3.609375 Z M 6.15625 -9.796875 "/></g></g><g style="fill:#66b0df;fill-opacity:1;"><g transform="translate(186.771915, 287.584112)"><path style="stroke:none" d="M 0.84375 -9.703125 C 1.050781 -9.742188 1.28125 -9.78125 1.53125 -9.8125 C 1.78125 -9.84375 2.023438 -9.863281 2.265625 -9.875 C 2.515625 -9.894531 2.753906 -9.910156 2.984375 -9.921875 C 3.222656 -9.929688 3.441406 -9.9375 3.640625 -9.9375 C 4.097656 -9.9375 4.546875 -9.894531 4.984375 -9.8125 C 5.429688 -9.726562 5.828125 -9.582031 6.171875 -9.375 C 6.523438 -9.175781 6.804688 -8.894531 7.015625 -8.53125 C 7.234375 -8.175781 7.34375 -7.726562 7.34375 -7.1875 C 7.34375 -6.382812 7.15625 -5.726562 6.78125 -5.21875 C 6.40625 -4.71875 5.90625 -4.367188 5.28125 -4.171875 L 5.96875 -3.734375 L 8.203125 0 L 5.984375 0 L 3.765625 -3.84375 L 2.765625 -4.015625 L 2.765625 0 L 0.84375 0 Z M 3.78125 -8.234375 C 3.582031 -8.234375 3.382812 -8.226562 3.1875 -8.21875 C 3 -8.207031 2.859375 -8.1875 2.765625 -8.15625 L 2.765625 -5.3125 L 3.5625 -5.3125 C 4.101562 -5.3125 4.53125 -5.429688 4.84375 -5.671875 C 5.15625 -5.921875 5.3125 -6.328125 5.3125 -6.890625 C 5.3125 -7.304688 5.179688 -7.632812 4.921875 -7.875 C 4.660156 -8.113281 4.28125 -8.234375 3.78125 -8.234375 Z M 3.78125 -8.234375 "/></g></g><g style="fill:#66b0df;fill-opacity:1;"><g transform="translate(198.695216, 287.584112)"><path style="stroke:none" d="M 0.84375 -9.796875 L 6.65625 -9.796875 L 6.65625 -8.09375 L 2.765625 -8.09375 L 2.765625 -5.8125 L 6.296875 -5.8125 L 6.296875 -4.109375 L 2.765625 -4.109375 L 2.765625 -1.703125 L 6.71875 -1.703125 L 6.71875 0 L 0.84375 0 Z M 0.84375 -9.796875 "/></g></g><g style="fill:#66b0df;fill-opacity:1;"><g transform="translate(209.499148, 287.584112)"><path style="stroke:none" d=""/></g></g><g style="fill:#66b0df;fill-opacity:1;"><g transform="translate(216.539175, 287.584112)"><path style="stroke:none" d="M 7.4375 -7.515625 C 7.4375 -7.273438 7.40625 -7.03125 7.34375 -6.78125 C 7.28125 -6.539062 7.175781 -6.320312 7.03125 -6.125 C 6.894531 -5.925781 6.710938 -5.75 6.484375 -5.59375 C 6.265625 -5.4375 6 -5.320312 5.6875 -5.25 L 5.6875 -5.171875 C 5.96875 -5.117188 6.234375 -5.035156 6.484375 -4.921875 C 6.734375 -4.816406 6.953125 -4.664062 7.140625 -4.46875 C 7.328125 -4.269531 7.472656 -4.03125 7.578125 -3.75 C 7.679688 -3.46875 7.734375 -3.140625 7.734375 -2.765625 C 7.734375 -2.253906 7.625 -1.8125 7.40625 -1.4375 C 7.195312 -1.070312 6.910156 -0.773438 6.546875 -0.546875 C 6.191406 -0.316406 5.785156 -0.144531 5.328125 -0.03125 C 4.867188 0.0820312 4.398438 0.140625 3.921875 0.140625 C 3.765625 0.140625 3.5625 0.140625 3.3125 0.140625 C 3.0625 0.140625 2.796875 0.128906 2.515625 0.109375 C 2.234375 0.0976562 1.941406 0.078125 1.640625 0.046875 C 1.347656 0.0234375 1.082031 -0.0078125 0.84375 -0.0625 L 0.84375 -9.734375 C 1.019531 -9.753906 1.222656 -9.78125 1.453125 -9.8125 C 1.679688 -9.84375 1.925781 -9.863281 2.1875 -9.875 C 2.445312 -9.894531 2.710938 -9.910156 2.984375 -9.921875 C 3.265625 -9.929688 3.539062 -9.9375 3.8125 -9.9375 C 4.269531 -9.9375 4.710938 -9.898438 5.140625 -9.828125 C 5.578125 -9.765625 5.960938 -9.644531 6.296875 -9.46875 C 6.640625 -9.289062 6.914062 -9.039062 7.125 -8.71875 C 7.332031 -8.40625 7.4375 -8.003906 7.4375 -7.515625 Z M 3.9375 -1.4375 C 4.164062 -1.4375 4.390625 -1.460938 4.609375 -1.515625 C 4.828125 -1.578125 5.019531 -1.664062 5.1875 -1.78125 C 5.363281 -1.894531 5.5 -2.039062 5.59375 -2.21875 C 5.695312 -2.394531 5.75 -2.609375 5.75 -2.859375 C 5.75 -3.160156 5.6875 -3.398438 5.5625 -3.578125 C 5.445312 -3.753906 5.289062 -3.890625 5.09375 -3.984375 C 4.894531 -4.085938 4.675781 -4.15625 4.4375 -4.1875 C 4.195312 -4.21875 3.953125 -4.234375 3.703125 -4.234375 L 2.6875 -4.234375 L 2.6875 -1.53125 C 2.738281 -1.507812 2.8125 -1.492188 2.90625 -1.484375 C 3.007812 -1.472656 3.117188 -1.460938 3.234375 -1.453125 C 3.359375 -1.453125 3.484375 -1.445312 3.609375 -1.4375 C 3.734375 -1.4375 3.84375 -1.4375 3.9375 -1.4375 Z M 3.296875 -5.6875 C 3.429688 -5.6875 3.582031 -5.691406 3.75 -5.703125 C 3.925781 -5.710938 4.070312 -5.722656 4.1875 -5.734375 C 4.539062 -5.847656 4.84375 -6.015625 5.09375 -6.234375 C 5.351562 -6.460938 5.484375 -6.757812 5.484375 -7.125 C 5.484375 -7.363281 5.4375 -7.5625 5.34375 -7.71875 C 5.25 -7.882812 5.125 -8.015625 4.96875 -8.109375 C 4.820312 -8.203125 4.648438 -8.265625 4.453125 -8.296875 C 4.253906 -8.335938 4.050781 -8.359375 3.84375 -8.359375 C 3.59375 -8.359375 3.363281 -8.351562 3.15625 -8.34375 C 2.957031 -8.332031 2.800781 -8.316406 2.6875 -8.296875 L 2.6875 -5.6875 Z M 3.296875 -5.6875 "/></g></g><g style="fill:#66b0df;fill-opacity:1;"><g transform="translate(228.308564, 287.584112)"><path style="stroke:none" d="M 6.15625 -9.796875 L 7.984375 -9.796875 L 7.984375 -3.46875 C 7.984375 -2.832031 7.894531 -2.285156 7.71875 -1.828125 C 7.550781 -1.367188 7.316406 -0.988281 7.015625 -0.6875 C 6.722656 -0.394531 6.363281 -0.175781 5.9375 -0.03125 C 5.507812 0.101562 5.035156 0.171875 4.515625 0.171875 C 2.035156 0.171875 0.796875 -0.960938 0.796875 -3.234375 L 0.796875 -9.796875 L 2.71875 -9.796875 L 2.71875 -3.609375 C 2.71875 -3.222656 2.75 -2.894531 2.8125 -2.625 C 2.882812 -2.363281 2.992188 -2.148438 3.140625 -1.984375 C 3.296875 -1.828125 3.484375 -1.710938 3.703125 -1.640625 C 3.929688 -1.578125 4.195312 -1.546875 4.5 -1.546875 C 5.082031 -1.546875 5.503906 -1.707031 5.765625 -2.03125 C 6.023438 -2.351562 6.15625 -2.878906 6.15625 -3.609375 Z M 6.15625 -9.796875 "/></g></g><g style="fill:#66b0df;fill-opacity:1;"><g transform="translate(240.581665, 287.584112)"><path style="stroke:none" d="M 1.03125 -9.796875 L 2.953125 -9.796875 L 2.953125 0 L 1.03125 0 Z M 1.03125 -9.796875 "/></g></g><g style="fill:#66b0df;fill-opacity:1;"><g transform="translate(248.069442, 287.584112)"><path style="stroke:none" d="M 7.046875 0 L 0.84375 0 L 0.84375 -9.796875 L 2.765625 -9.796875 L 2.765625 -1.703125 L 7.046875 -1.703125 Z M 7.046875 0 "/></g></g><g style="fill:#66b0df;fill-opacity:1;"><g transform="translate(258.761428, 287.584112)"><path style="stroke:none" d="M 0.84375 -9.796875 C 1.039062 -9.828125 1.257812 -9.847656 1.5 -9.859375 C 1.75 -9.878906 2.003906 -9.894531 2.265625 -9.90625 C 2.523438 -9.914062 2.78125 -9.921875 3.03125 -9.921875 C 3.28125 -9.929688 3.503906 -9.9375 3.703125 -9.9375 C 4.566406 -9.9375 5.304688 -9.816406 5.921875 -9.578125 C 6.535156 -9.335938 7.035156 -8.992188 7.421875 -8.546875 C 7.804688 -8.109375 8.085938 -7.585938 8.265625 -6.984375 C 8.441406 -6.378906 8.53125 -5.710938 8.53125 -4.984375 C 8.53125 -4.316406 8.441406 -3.675781 8.265625 -3.0625 C 8.097656 -2.445312 7.816406 -1.898438 7.421875 -1.421875 C 7.035156 -0.953125 6.519531 -0.570312 5.875 -0.28125 C 5.238281 0.0078125 4.453125 0.15625 3.515625 0.15625 C 3.367188 0.15625 3.171875 0.148438 2.921875 0.140625 C 2.671875 0.128906 2.410156 0.113281 2.140625 0.09375 C 1.878906 0.0820312 1.625 0.0703125 1.375 0.0625 C 1.132812 0.0507812 0.957031 0.0351562 0.84375 0.015625 Z M 3.84375 -8.234375 C 3.644531 -8.234375 3.4375 -8.226562 3.21875 -8.21875 C 3.007812 -8.207031 2.859375 -8.191406 2.765625 -8.171875 L 2.765625 -1.609375 C 2.796875 -1.597656 2.851562 -1.585938 2.9375 -1.578125 C 3.03125 -1.578125 3.128906 -1.570312 3.234375 -1.5625 C 3.335938 -1.5625 3.4375 -1.554688 3.53125 -1.546875 C 3.625 -1.546875 3.691406 -1.546875 3.734375 -1.546875 C 4.273438 -1.546875 4.722656 -1.640625 5.078125 -1.828125 C 5.441406 -2.023438 5.726562 -2.28125 5.9375 -2.59375 C 6.15625 -2.914062 6.304688 -3.285156 6.390625 -3.703125 C 6.472656 -4.117188 6.515625 -4.546875 6.515625 -4.984375 C 6.515625 -5.367188 6.472656 -5.753906 6.390625 -6.140625 C 6.316406 -6.523438 6.179688 -6.867188 5.984375 -7.171875 C 5.785156 -7.484375 5.507812 -7.738281 5.15625 -7.9375 C 4.8125 -8.132812 4.375 -8.234375 3.84375 -8.234375 Z M 3.84375 -8.234375 "/></g></g><g style="fill:#66b0df;fill-opacity:1;"><g transform="translate(271.314383, 287.584112)"><path style="stroke:none" d="M 1.03125 -9.796875 L 2.953125 -9.796875 L 2.953125 0 L 1.03125 0 Z M 1.03125 -9.796875 "/></g></g><g style="fill:#66b0df;fill-opacity:1;"><g transform="translate(278.80216, 287.584112)"><path style="stroke:none" d="M 3.28125 -5.109375 L 2.5 -6.65625 L 2.4375 -6.65625 L 2.65625 -5.109375 L 2.65625 0 L 0.84375 0 L 0.84375 -9.875 L 2.234375 -9.875 L 5.953125 -4.640625 L 6.6875 -3.15625 L 6.765625 -3.15625 L 6.53125 -4.640625 L 6.53125 -9.796875 L 8.359375 -9.796875 L 8.359375 0.0625 L 6.953125 0.0625 Z M 3.28125 -5.109375 "/></g></g><g style="fill:#66b0df;fill-opacity:1;"><g transform="translate(291.49503, 287.584112)"><path style="stroke:none" d="M 4.296875 -5.109375 L 7.953125 -5.109375 L 7.953125 -0.734375 C 7.554688 -0.410156 7.082031 -0.171875 6.53125 -0.015625 C 5.988281 0.128906 5.453125 0.203125 4.921875 0.203125 C 4.296875 0.203125 3.710938 0.101562 3.171875 -0.09375 C 2.640625 -0.289062 2.175781 -0.597656 1.78125 -1.015625 C 1.394531 -1.429688 1.085938 -1.957031 0.859375 -2.59375 C 0.640625 -3.238281 0.53125 -4.007812 0.53125 -4.90625 C 0.53125 -5.820312 0.660156 -6.601562 0.921875 -7.25 C 1.191406 -7.90625 1.539062 -8.4375 1.96875 -8.84375 C 2.40625 -9.25 2.894531 -9.539062 3.4375 -9.71875 C 3.976562 -9.90625 4.53125 -10 5.09375 -10 C 5.65625 -10 6.144531 -9.957031 6.5625 -9.875 C 6.988281 -9.789062 7.332031 -9.703125 7.59375 -9.609375 L 7.203125 -8 C 6.960938 -8.09375 6.695312 -8.160156 6.40625 -8.203125 C 6.125 -8.253906 5.757812 -8.28125 5.3125 -8.28125 C 4.90625 -8.28125 4.535156 -8.21875 4.203125 -8.09375 C 3.867188 -7.976562 3.578125 -7.78125 3.328125 -7.5 C 3.078125 -7.226562 2.882812 -6.878906 2.75 -6.453125 C 2.613281 -6.023438 2.546875 -5.503906 2.546875 -4.890625 C 2.546875 -4.296875 2.609375 -3.785156 2.734375 -3.359375 C 2.867188 -2.941406 3.050781 -2.59375 3.28125 -2.3125 C 3.519531 -2.039062 3.796875 -1.835938 4.109375 -1.703125 C 4.421875 -1.578125 4.753906 -1.515625 5.109375 -1.515625 C 5.347656 -1.515625 5.582031 -1.539062 5.8125 -1.59375 C 6.050781 -1.65625 6.25 -1.75 6.40625 -1.875 L 6.40625 -3.71875 L 4.296875 -3.953125 Z M 4.296875 -5.109375 "/></g></g><g style="fill:#166394;fill-opacity:1;"><g transform="translate(51.923435, 273.74049)"><path style="stroke:none" d="M 30.640625 0 L 30.640625 -20.015625 C 30.640625 -20.472656 30.640625 -20.925781 30.640625 -21.375 C 30.648438 -21.832031 30.726562 -23.78125 30.875 -27.21875 C 29.757812 -23.007812 28.9375 -20.078125 28.40625 -18.421875 L 22.453125 0 L 17.53125 0 L 11.578125 -18.421875 L 9.078125 -27.21875 C 9.265625 -23.59375 9.359375 -21.191406 9.359375 -20.015625 L 9.359375 0 L 3.21875 0 L 3.21875 -33.03125 L 12.46875 -33.03125 L 18.375 -14.5625 L 18.890625 -12.78125 L 20.015625 -8.34375 L 21.5 -13.640625 L 27.5625 -33.03125 L 36.78125 -33.03125 L 36.78125 0 Z M 30.640625 0 "/></g><g transform="translate(91.907807, 273.74049)"><path style="stroke:none" d="M 25.90625 0 L 18.234375 -12.546875 L 10.125 -12.546875 L 10.125 0 L 3.21875 0 L 3.21875 -33.03125 L 19.71875 -33.03125 C 23.65625 -33.03125 26.691406 -32.179688 28.828125 -30.484375 C 30.972656 -28.785156 32.046875 -26.351562 32.046875 -23.1875 C 32.046875 -20.875 31.390625 -18.875 30.078125 -17.1875 C 28.765625 -15.507812 26.988281 -14.40625 24.75 -13.875 L 33.6875 0 Z M 25.078125 -22.90625 C 25.078125 -26.070312 23.046875 -27.65625 18.984375 -27.65625 L 10.125 -27.65625 L 10.125 -17.90625 L 19.171875 -17.90625 C 21.109375 -17.90625 22.578125 -18.34375 23.578125 -19.21875 C 24.578125 -20.09375 25.078125 -21.320312 25.078125 -22.90625 Z M 25.078125 -22.90625 "/></g><g transform="translate(126.571867, 273.74049)"><path style="stroke:none" d=""/></g><g transform="translate(139.907804, 273.74049)"><path style="stroke:none" d="M 18.125 -27.6875 L 18.125 0 L 11.203125 0 L 11.203125 -27.6875 L 0.546875 -27.6875 L 0.546875 -33.03125 L 28.8125 -33.03125 L 28.8125 -27.6875 Z M 18.125 -27.6875 "/></g></g><g style="fill:#166394;fill-opacity:1;"><g transform="translate(165.665615, 273.74049)"><path style="stroke:none" d="M 13.734375 0.46875 C 9.921875 0.46875 6.988281 -0.660156 4.9375 -2.921875 C 2.894531 -5.179688 1.875 -8.472656 1.875 -12.796875 C 1.875 -16.984375 2.910156 -20.203125 4.984375 -22.453125 C 7.066406 -24.703125 10.015625 -25.828125 13.828125 -25.828125 C 17.472656 -25.828125 20.253906 -24.617188 22.171875 -22.203125 C 24.097656 -19.796875 25.0625 -16.265625 25.0625 -11.609375 L 25.0625 -11.421875 L 8.796875 -11.421875 C 8.796875 -8.953125 9.25 -7.085938 10.15625 -5.828125 C 11.070312 -4.566406 12.375 -3.9375 14.0625 -3.9375 C 16.394531 -3.9375 17.863281 -4.945312 18.46875 -6.96875 L 24.6875 -6.421875 C 22.882812 -1.828125 19.234375 0.46875 13.734375 0.46875 Z M 13.734375 -21.6875 C 12.191406 -21.6875 11 -21.144531 10.15625 -20.0625 C 9.320312 -18.988281 8.882812 -17.484375 8.84375 -15.546875 L 18.6875 -15.546875 C 18.5625 -17.585938 18.066406 -19.117188 17.203125 -20.140625 C 16.347656 -21.171875 15.191406 -21.6875 13.734375 -21.6875 Z M 13.734375 -21.6875 "/></g><g transform="translate(192.360925, 273.74049)"><path style="stroke:none" d="M 19.78125 0 L 19.78125 -14.234375 C 19.78125 -18.679688 18.273438 -20.90625 15.265625 -20.90625 C 13.671875 -20.90625 12.382812 -20.222656 11.40625 -18.859375 C 10.425781 -17.492188 9.9375 -15.738281 9.9375 -13.59375 L 9.9375 0 L 3.359375 0 L 3.359375 -19.6875 C 3.359375 -21.050781 3.335938 -22.164062 3.296875 -23.03125 C 3.253906 -23.894531 3.210938 -24.671875 3.171875 -25.359375 L 9.453125 -25.359375 C 9.492188 -25.066406 9.550781 -24.273438 9.625 -22.984375 C 9.707031 -21.691406 9.75 -20.804688 9.75 -20.328125 L 9.84375 -20.328125 C 10.738281 -22.265625 11.859375 -23.671875 13.203125 -24.546875 C 14.546875 -25.421875 16.144531 -25.859375 18 -25.859375 C 20.6875 -25.859375 22.75 -25.03125 24.1875 -23.375 C 25.625 -21.71875 26.34375 -19.296875 26.34375 -16.109375 L 26.34375 0 Z M 19.78125 0 "/></g><g transform="translate(221.681236, 273.74049)"><path style="stroke:none" d="M 19.78125 0 C 19.71875 -0.238281 19.644531 -0.828125 19.5625 -1.765625 C 19.476562 -2.710938 19.4375 -3.5 19.4375 -4.125 L 19.34375 -4.125 C 17.914062 -1.0625 15.210938 0.46875 11.234375 0.46875 C 8.273438 0.46875 5.988281 -0.679688 4.375 -2.984375 C 2.769531 -5.296875 1.96875 -8.519531 1.96875 -12.65625 C 1.96875 -16.863281 2.816406 -20.109375 4.515625 -22.390625 C 6.210938 -24.679688 8.613281 -25.828125 11.71875 -25.828125 C 13.519531 -25.828125 15.070312 -25.453125 16.375 -24.703125 C 17.675781 -23.953125 18.679688 -22.835938 19.390625 -21.359375 L 19.4375 -21.359375 L 19.390625 -25.53125 L 19.390625 -34.78125 L 25.96875 -34.78125 L 25.96875 -5.53125 C 25.96875 -3.96875 26.03125 -2.125 26.15625 0 Z M 19.484375 -12.828125 C 19.484375 -15.554688 19.023438 -17.660156 18.109375 -19.140625 C 17.191406 -20.617188 15.84375 -21.359375 14.0625 -21.359375 C 12.300781 -21.359375 10.988281 -20.640625 10.125 -19.203125 C 9.269531 -17.773438 8.84375 -15.59375 8.84375 -12.65625 C 8.84375 -6.90625 10.566406 -4.03125 14.015625 -4.03125 C 15.753906 -4.03125 17.097656 -4.789062 18.046875 -6.3125 C 19.003906 -7.84375 19.484375 -10.015625 19.484375 -12.828125 Z M 19.484375 -12.828125 "/></g><g transform="translate(251.001546, 273.74049)"><path style="stroke:none" d="M 13.734375 0.46875 C 9.921875 0.46875 6.988281 -0.660156 4.9375 -2.921875 C 2.894531 -5.179688 1.875 -8.472656 1.875 -12.796875 C 1.875 -16.984375 2.910156 -20.203125 4.984375 -22.453125 C 7.066406 -24.703125 10.015625 -25.828125 13.828125 -25.828125 C 17.472656 -25.828125 20.253906 -24.617188 22.171875 -22.203125 C 24.097656 -19.796875 25.0625 -16.265625 25.0625 -11.609375 L 25.0625 -11.421875 L 8.796875 -11.421875 C 8.796875 -8.953125 9.25 -7.085938 10.15625 -5.828125 C 11.070312 -4.566406 12.375 -3.9375 14.0625 -3.9375 C 16.394531 -3.9375 17.863281 -4.945312 18.46875 -6.96875 L 24.6875 -6.421875 C 22.882812 -1.828125 19.234375 0.46875 13.734375 0.46875 Z M 13.734375 -21.6875 C 12.191406 -21.6875 11 -21.144531 10.15625 -20.0625 C 9.320312 -18.988281 8.882812 -17.484375 8.84375 -15.546875 L 18.6875 -15.546875 C 18.5625 -17.585938 18.066406 -19.117188 17.203125 -20.140625 C 16.347656 -21.171875 15.191406 -21.6875 13.734375 -21.6875 Z M 13.734375 -21.6875 "/></g><g transform="translate(277.696857, 273.74049)"><path style="stroke:none" d="M 3.359375 0 L 3.359375 -19.40625 C 3.359375 -20.800781 3.335938 -21.960938 3.296875 -22.890625 C 3.253906 -23.816406 3.210938 -24.640625 3.171875 -25.359375 L 9.453125 -25.359375 C 9.492188 -25.078125 9.550781 -24.222656 9.625 -22.796875 C 9.707031 -21.367188 9.75 -20.421875 9.75 -19.953125 L 9.84375 -19.953125 C 10.488281 -21.734375 11.0625 -22.984375 11.5625 -23.703125 C 12.0625 -24.429688 12.65625 -24.972656 13.34375 -25.328125 C 14.03125 -25.679688 14.890625 -25.859375 15.921875 -25.859375 C 16.765625 -25.859375 17.441406 -25.738281 17.953125 -25.5 L 17.953125 -20 C 16.890625 -20.226562 15.953125 -20.34375 15.140625 -20.34375 C 13.503906 -20.34375 12.226562 -19.675781 11.3125 -18.34375 C 10.394531 -17.019531 9.9375 -15.054688 9.9375 -12.453125 L 9.9375 0 Z M 3.359375 0 "/></g><g transform="translate(296.376543, 273.74049)"><path style="stroke:none" d="M 24.734375 -7.40625 C 24.734375 -4.957031 23.726562 -3.03125 21.71875 -1.625 C 19.707031 -0.226562 16.929688 0.46875 13.390625 0.46875 C 9.898438 0.46875 7.226562 -0.0820312 5.375 -1.1875 C 3.53125 -2.289062 2.300781 -4.003906 1.6875 -6.328125 L 7.484375 -7.203125 C 7.804688 -5.992188 8.367188 -5.140625 9.171875 -4.640625 C 9.984375 -4.140625 11.390625 -3.890625 13.390625 -3.890625 C 15.234375 -3.890625 16.578125 -4.125 17.421875 -4.59375 C 18.265625 -5.0625 18.6875 -5.796875 18.6875 -6.796875 C 18.6875 -7.609375 18.34375 -8.253906 17.65625 -8.734375 C 16.976562 -9.210938 15.828125 -9.613281 14.203125 -9.9375 C 10.484375 -10.675781 7.972656 -11.359375 6.671875 -11.984375 C 5.378906 -12.617188 4.394531 -13.441406 3.71875 -14.453125 C 3.039062 -15.460938 2.703125 -16.703125 2.703125 -18.171875 C 2.703125 -20.585938 3.632812 -22.472656 5.5 -23.828125 C 7.363281 -25.179688 10.007812 -25.859375 13.4375 -25.859375 C 16.445312 -25.859375 18.867188 -25.269531 20.703125 -24.09375 C 22.546875 -22.925781 23.691406 -21.234375 24.140625 -19.015625 L 18.3125 -18.40625 C 18.125 -19.4375 17.660156 -20.203125 16.921875 -20.703125 C 16.191406 -21.210938 15.03125 -21.46875 13.4375 -21.46875 C 11.875 -21.46875 10.703125 -21.269531 9.921875 -20.875 C 9.140625 -20.476562 8.75 -19.8125 8.75 -18.875 C 8.75 -18.132812 9.046875 -17.550781 9.640625 -17.125 C 10.242188 -16.695312 11.257812 -16.34375 12.6875 -16.0625 C 14.664062 -15.65625 16.425781 -15.234375 17.96875 -14.796875 C 19.507812 -14.367188 20.742188 -13.859375 21.671875 -13.265625 C 22.597656 -12.671875 23.335938 -11.910156 23.890625 -10.984375 C 24.453125 -10.054688 24.734375 -8.863281 24.734375 -7.40625 Z M 24.734375 -7.40625 "/></g></g></g></svg>